<?xml version="1.0" encoding="utf-8" standalone="no"?>
<!DOCTYPE svg PUBLIC "-//W3C//DTD SVG 1.1//EN"
  "http://www.w3.org/Graphics/SVG/1.1/DTD/svg11.dtd">
<svg xmlns:xlink="http://www.w3.org/1999/xlink" width="460.8pt" height="345.6pt" viewBox="0 0 460.8 345.6" xmlns="http://www.w3.org/2000/svg" version="1.1">
 <metadata>
  <rdf:RDF xmlns:dc="http://purl.org/dc/elements/1.1/" xmlns:cc="http://creativecommons.org/ns#" xmlns:rdf="http://www.w3.org/1999/02/22-rdf-syntax-ns#">
   <cc:Work>
    <dc:type rdf:resource="http://purl.org/dc/dcmitype/StillImage"/>
    <dc:date>2024-04-13T16:40:51.356668</dc:date>
    <dc:format>image/svg+xml</dc:format>
    <dc:creator>
     <cc:Agent>
      <dc:title>Matplotlib v3.8.4, https://matplotlib.org/</dc:title>
     </cc:Agent>
    </dc:creator>
   </cc:Work>
  </rdf:RDF>
 </metadata>
 <defs>
  <style type="text/css">*{stroke-linejoin: round; stroke-linecap: butt}</style>
 </defs>
 <g id="figure_1">
  <g id="patch_1">
   <path d="M 0 345.6 
L 460.8 345.6 
L 460.8 0 
L 0 0 
z
" style="fill: #ffffff"/>
  </g>
  <g id="axes_1">
   <g id="patch_2">
    <path d="M 57.6 307.584 
L 414.72 307.584 
L 414.72 41.472 
L 57.6 41.472 
z
" style="fill: #ffffff"/>
   </g>
   <g id="patch_3">
    <path d="M 73.832727 307.584 
L 73.832727 306.540833 
L 80.45833 306.417083 
L 87.083933 306.278654 
L 93.709536 306.123803 
L 100.335139 305.950582 
L 106.960742 305.756812 
L 113.586345 305.540056 
L 120.211948 305.297586 
L 126.837551 305.026352 
L 133.463154 304.722943 
L 140.088757 304.38354 
L 146.71436 304.003874 
L 153.339963 303.57917 
L 159.965566 303.104083 
L 166.591169 302.572638 
L 173.216772 301.978148 
L 179.842375 301.313135 
L 186.467978 300.569232 
L 193.093581 299.737081 
L 199.719184 298.806214 
L 206.344787 297.764919 
L 212.97039 296.600097 
L 219.595993 295.297094 
L 226.221596 293.839518 
L 232.847199 292.209032 
L 239.472801 290.385124 
L 246.098404 288.344849 
L 252.724007 286.062539 
L 259.34961 283.509483 
L 265.975213 280.653561 
L 272.600816 277.458846 
L 279.226419 273.885148 
L 285.852022 269.887506 
L 292.477625 265.415632 
L 299.103228 260.413265 
L 305.728831 254.817477 
L 312.354434 248.557868 
L 318.980037 241.555692 
L 325.60564 233.72286 
L 332.231243 224.960831 
L 338.856846 215.159376 
L 345.482449 204.19519 
L 352.108052 191.930341 
L 358.733655 178.210532 
L 365.359258 162.863164 
L 371.984861 145.695162 
L 378.610464 126.490548 
L 385.236067 105.007721 
L 391.86167 80.976421 
L 398.487273 54.094325 
L 398.487273 307.584 
z
" clip-path="url(#p411530a00c)" style="fill: #e6e6e6; stroke: #808080; stroke-linejoin: miter"/>
   </g>
   <g id="PatchCollection_1">
    <path d="M 77.079273 307.584 
L 77.079273 306.419697 
L 80.325818 306.419697 
L 80.325818 307.584 
z
" clip-path="url(#p411530a00c)" style="fill: #f08080"/>
    <path d="M 80.325818 307.584 
L 80.325818 306.353952 
L 83.572364 306.353952 
L 83.572364 307.584 
z
" clip-path="url(#p411530a00c)" style="fill: #fa8072"/>
    <path d="M 83.572364 307.584 
L 83.572364 306.284494 
L 86.818909 306.284494 
L 86.818909 307.584 
z
" clip-path="url(#p411530a00c)" style="fill: #ff7f50"/>
    <path d="M 86.818909 307.584 
L 86.818909 306.211115 
L 90.065455 306.211115 
L 90.065455 307.584 
z
" clip-path="url(#p411530a00c)" style="fill: #f08080"/>
    <path d="M 90.065455 307.584 
L 90.065455 306.133591 
L 93.312 306.133591 
L 93.312 307.584 
z
" clip-path="url(#p411530a00c)" style="fill: #fa8072"/>
    <path d="M 93.312 307.584 
L 93.312 306.051691 
L 96.558545 306.051691 
L 96.558545 307.584 
z
" clip-path="url(#p411530a00c)" style="fill: #ff7f50"/>
    <path d="M 96.558545 307.584 
L 96.558545 305.965165 
L 99.805091 305.965165 
L 99.805091 307.584 
z
" clip-path="url(#p411530a00c)" style="fill: #f08080"/>
    <path d="M 99.805091 307.584 
L 99.805091 305.873754 
L 103.051636 305.873754 
L 103.051636 307.584 
z
" clip-path="url(#p411530a00c)" style="fill: #fa8072"/>
    <path d="M 103.051636 307.584 
L 103.051636 305.777181 
L 106.298182 305.777181 
L 106.298182 307.584 
z
" clip-path="url(#p411530a00c)" style="fill: #ff7f50"/>
    <path d="M 106.298182 307.584 
L 106.298182 305.675155 
L 109.544727 305.675155 
L 109.544727 307.584 
z
" clip-path="url(#p411530a00c)" style="fill: #f08080"/>
    <path d="M 109.544727 307.584 
L 109.544727 305.567368 
L 112.791273 305.567368 
L 112.791273 307.584 
z
" clip-path="url(#p411530a00c)" style="fill: #fa8072"/>
    <path d="M 112.791273 307.584 
L 112.791273 305.453494 
L 116.037818 305.453494 
L 116.037818 307.584 
z
" clip-path="url(#p411530a00c)" style="fill: #ff7f50"/>
    <path d="M 116.037818 307.584 
L 116.037818 305.33319 
L 119.284364 305.33319 
L 119.284364 307.584 
z
" clip-path="url(#p411530a00c)" style="fill: #f08080"/>
    <path d="M 119.284364 307.584 
L 119.284364 305.206093 
L 122.530909 305.206093 
L 122.530909 307.584 
z
" clip-path="url(#p411530a00c)" style="fill: #fa8072"/>
    <path d="M 122.530909 307.584 
L 122.530909 305.071819 
L 125.777455 305.071819 
L 125.777455 307.584 
z
" clip-path="url(#p411530a00c)" style="fill: #ff7f50"/>
    <path d="M 125.777455 307.584 
L 125.777455 304.929962 
L 129.024 304.929962 
L 129.024 307.584 
z
" clip-path="url(#p411530a00c)" style="fill: #f08080"/>
    <path d="M 129.024 307.584 
L 129.024 304.780096 
L 132.270545 304.780096 
L 132.270545 307.584 
z
" clip-path="url(#p411530a00c)" style="fill: #fa8072"/>
    <path d="M 132.270545 307.584 
L 132.270545 304.621767 
L 135.517091 304.621767 
L 135.517091 307.584 
z
" clip-path="url(#p411530a00c)" style="fill: #ff7f50"/>
    <path d="M 135.517091 307.584 
L 135.517091 304.454498 
L 138.763636 304.454498 
L 138.763636 307.584 
z
" clip-path="url(#p411530a00c)" style="fill: #f08080"/>
    <path d="M 138.763636 307.584 
L 138.763636 304.277783 
L 142.010182 304.277783 
L 142.010182 307.584 
z
" clip-path="url(#p411530a00c)" style="fill: #fa8072"/>
    <path d="M 142.010182 307.584 
L 142.010182 304.09109 
L 145.256727 304.09109 
L 145.256727 307.584 
z
" clip-path="url(#p411530a00c)" style="fill: #ff7f50"/>
    <path d="M 145.256727 307.584 
L 145.256727 303.893855 
L 148.503273 303.893855 
L 148.503273 307.584 
z
" clip-path="url(#p411530a00c)" style="fill: #f08080"/>
    <path d="M 148.503273 307.584 
L 148.503273 303.685482 
L 151.749818 303.685482 
L 151.749818 307.584 
z
" clip-path="url(#p411530a00c)" style="fill: #fa8072"/>
    <path d="M 151.749818 307.584 
L 151.749818 303.465344 
L 154.996364 303.465344 
L 154.996364 307.584 
z
" clip-path="url(#p411530a00c)" style="fill: #ff7f50"/>
    <path d="M 154.996364 307.584 
L 154.996364 303.232774 
L 158.242909 303.232774 
L 158.242909 307.584 
z
" clip-path="url(#p411530a00c)" style="fill: #f08080"/>
    <path d="M 158.242909 307.584 
L 158.242909 302.987072 
L 161.489455 302.987072 
L 161.489455 307.584 
z
" clip-path="url(#p411530a00c)" style="fill: #fa8072"/>
    <path d="M 161.489455 307.584 
L 161.489455 302.727496 
L 164.736 302.727496 
L 164.736 307.584 
z
" clip-path="url(#p411530a00c)" style="fill: #ff7f50"/>
    <path d="M 164.736 307.584 
L 164.736 302.453262 
L 167.982545 302.453262 
L 167.982545 307.584 
z
" clip-path="url(#p411530a00c)" style="fill: #f08080"/>
    <path d="M 167.982545 307.584 
L 167.982545 302.163543 
L 171.229091 302.163543 
L 171.229091 307.584 
z
" clip-path="url(#p411530a00c)" style="fill: #fa8072"/>
    <path d="M 171.229091 307.584 
L 171.229091 301.857465 
L 174.475636 301.857465 
L 174.475636 307.584 
z
" clip-path="url(#p411530a00c)" style="fill: #ff7f50"/>
    <path d="M 174.475636 307.584 
L 174.475636 301.534103 
L 177.722182 301.534103 
L 177.722182 307.584 
z
" clip-path="url(#p411530a00c)" style="fill: #f08080"/>
    <path d="M 177.722182 307.584 
L 177.722182 301.192481 
L 180.968727 301.192481 
L 180.968727 307.584 
z
" clip-path="url(#p411530a00c)" style="fill: #fa8072"/>
    <path d="M 180.968727 307.584 
L 180.968727 300.831569 
L 184.215273 300.831569 
L 184.215273 307.584 
z
" clip-path="url(#p411530a00c)" style="fill: #ff7f50"/>
    <path d="M 184.215273 307.584 
L 184.215273 300.450278 
L 187.461818 300.450278 
L 187.461818 307.584 
z
" clip-path="url(#p411530a00c)" style="fill: #f08080"/>
    <path d="M 187.461818 307.584 
L 187.461818 300.047456 
L 190.708364 300.047456 
L 190.708364 307.584 
z
" clip-path="url(#p411530a00c)" style="fill: #fa8072"/>
    <path d="M 190.708364 307.584 
L 190.708364 299.621887 
L 193.954909 299.621887 
L 193.954909 307.584 
z
" clip-path="url(#p411530a00c)" style="fill: #ff7f50"/>
    <path d="M 193.954909 307.584 
L 193.954909 299.172288 
L 197.201455 299.172288 
L 197.201455 307.584 
z
" clip-path="url(#p411530a00c)" style="fill: #f08080"/>
    <path d="M 197.201455 307.584 
L 197.201455 298.697301 
L 200.448 298.697301 
L 200.448 307.584 
z
" clip-path="url(#p411530a00c)" style="fill: #fa8072"/>
    <path d="M 200.448 307.584 
L 200.448 298.195494 
L 203.694545 298.195494 
L 203.694545 307.584 
z
" clip-path="url(#p411530a00c)" style="fill: #ff7f50"/>
    <path d="M 203.694545 307.584 
L 203.694545 297.66535 
L 206.941091 297.66535 
L 206.941091 307.584 
z
" clip-path="url(#p411530a00c)" style="fill: #f08080"/>
    <path d="M 206.941091 307.584 
L 206.941091 297.10527 
L 210.187636 297.10527 
L 210.187636 307.584 
z
" clip-path="url(#p411530a00c)" style="fill: #fa8072"/>
    <path d="M 210.187636 307.584 
L 210.187636 296.513565 
L 213.434182 296.513565 
L 213.434182 307.584 
z
" clip-path="url(#p411530a00c)" style="fill: #ff7f50"/>
    <path d="M 213.434182 307.584 
L 213.434182 295.888447 
L 216.680727 295.888447 
L 216.680727 307.584 
z
" clip-path="url(#p411530a00c)" style="fill: #f08080"/>
    <path d="M 216.680727 307.584 
L 216.680727 295.228031 
L 219.927273 295.228031 
L 219.927273 307.584 
z
" clip-path="url(#p411530a00c)" style="fill: #fa8072"/>
    <path d="M 219.927273 307.584 
L 219.927273 294.530322 
L 223.173818 294.530322 
L 223.173818 307.584 
z
" clip-path="url(#p411530a00c)" style="fill: #ff7f50"/>
    <path d="M 223.173818 307.584 
L 223.173818 293.793216 
L 226.420364 293.793216 
L 226.420364 307.584 
z
" clip-path="url(#p411530a00c)" style="fill: #f08080"/>
    <path d="M 226.420364 307.584 
L 226.420364 293.014488 
L 229.666909 293.014488 
L 229.666909 307.584 
z
" clip-path="url(#p411530a00c)" style="fill: #fa8072"/>
    <path d="M 229.666909 307.584 
L 229.666909 292.191787 
L 232.913455 292.191787 
L 232.913455 307.584 
z
" clip-path="url(#p411530a00c)" style="fill: #ff7f50"/>
    <path d="M 232.913455 307.584 
L 232.913455 291.32263 
L 236.16 291.32263 
L 236.16 307.584 
z
" clip-path="url(#p411530a00c)" style="fill: #f08080"/>
    <path d="M 236.16 307.584 
L 236.16 290.404394 
L 239.406545 290.404394 
L 239.406545 307.584 
z
" clip-path="url(#p411530a00c)" style="fill: #fa8072"/>
    <path d="M 239.406545 307.584 
L 239.406545 289.434308 
L 242.653091 289.434308 
L 242.653091 307.584 
z
" clip-path="url(#p411530a00c)" style="fill: #ff7f50"/>
    <path d="M 242.653091 307.584 
L 242.653091 288.409444 
L 245.899636 288.409444 
L 245.899636 307.584 
z
" clip-path="url(#p411530a00c)" style="fill: #f08080"/>
    <path d="M 245.899636 307.584 
L 245.899636 287.326708 
L 249.146182 287.326708 
L 249.146182 307.584 
z
" clip-path="url(#p411530a00c)" style="fill: #fa8072"/>
    <path d="M 249.146182 307.584 
L 249.146182 286.182833 
L 252.392727 286.182833 
L 252.392727 307.584 
z
" clip-path="url(#p411530a00c)" style="fill: #ff7f50"/>
    <path d="M 252.392727 307.584 
L 252.392727 284.974367 
L 255.639273 284.974367 
L 255.639273 307.584 
z
" clip-path="url(#p411530a00c)" style="fill: #f08080"/>
    <path d="M 255.639273 307.584 
L 255.639273 283.697662 
L 258.885818 283.697662 
L 258.885818 307.584 
z
" clip-path="url(#p411530a00c)" style="fill: #fa8072"/>
    <path d="M 258.885818 307.584 
L 258.885818 282.348865 
L 262.132364 282.348865 
L 262.132364 307.584 
z
" clip-path="url(#p411530a00c)" style="fill: #ff7f50"/>
    <path d="M 262.132364 307.584 
L 262.132364 280.923904 
L 265.378909 280.923904 
L 265.378909 307.584 
z
" clip-path="url(#p411530a00c)" style="fill: #f08080"/>
    <path d="M 265.378909 307.584 
L 265.378909 279.418481 
L 268.625455 279.418481 
L 268.625455 307.584 
z
" clip-path="url(#p411530a00c)" style="fill: #fa8072"/>
    <path d="M 268.625455 307.584 
L 268.625455 277.82805 
L 271.872 277.82805 
L 271.872 307.584 
z
" clip-path="url(#p411530a00c)" style="fill: #ff7f50"/>
    <path d="M 271.872 307.584 
L 271.872 276.147811 
L 275.118545 276.147811 
L 275.118545 307.584 
z
" clip-path="url(#p411530a00c)" style="fill: #f08080"/>
    <path d="M 275.118545 307.584 
L 275.118545 274.372694 
L 278.365091 274.372694 
L 278.365091 307.584 
z
" clip-path="url(#p411530a00c)" style="fill: #fa8072"/>
    <path d="M 278.365091 307.584 
L 278.365091 272.497341 
L 281.611636 272.497341 
L 281.611636 307.584 
z
" clip-path="url(#p411530a00c)" style="fill: #ff7f50"/>
    <path d="M 281.611636 307.584 
L 281.611636 270.516092 
L 284.858182 270.516092 
L 284.858182 307.584 
z
" clip-path="url(#p411530a00c)" style="fill: #f08080"/>
    <path d="M 284.858182 307.584 
L 284.858182 268.422967 
L 288.104727 268.422967 
L 288.104727 307.584 
z
" clip-path="url(#p411530a00c)" style="fill: #fa8072"/>
    <path d="M 288.104727 307.584 
L 288.104727 266.211649 
L 291.351273 266.211649 
L 291.351273 307.584 
z
" clip-path="url(#p411530a00c)" style="fill: #ff7f50"/>
    <path d="M 291.351273 307.584 
L 291.351273 263.875463 
L 294.597818 263.875463 
L 294.597818 307.584 
z
" clip-path="url(#p411530a00c)" style="fill: #f08080"/>
    <path d="M 294.597818 307.584 
L 294.597818 261.40736 
L 297.844364 261.40736 
L 297.844364 307.584 
z
" clip-path="url(#p411530a00c)" style="fill: #fa8072"/>
    <path d="M 297.844364 307.584 
L 297.844364 258.799889 
L 301.090909 258.799889 
L 301.090909 307.584 
z
" clip-path="url(#p411530a00c)" style="fill: #ff7f50"/>
    <path d="M 301.090909 307.584 
L 301.090909 256.045182 
L 304.337455 256.045182 
L 304.337455 307.584 
z
" clip-path="url(#p411530a00c)" style="fill: #f08080"/>
    <path d="M 304.337455 307.584 
L 304.337455 253.134924 
L 307.584 253.134924 
L 307.584 307.584 
z
" clip-path="url(#p411530a00c)" style="fill: #fa8072"/>
    <path d="M 307.584 307.584 
L 307.584 250.060331 
L 310.830545 250.060331 
L 310.830545 307.584 
z
" clip-path="url(#p411530a00c)" style="fill: #ff7f50"/>
    <path d="M 310.830545 307.584 
L 310.830545 246.812124 
L 314.077091 246.812124 
L 314.077091 307.584 
z
" clip-path="url(#p411530a00c)" style="fill: #f08080"/>
    <path d="M 314.077091 307.584 
L 314.077091 243.3805 
L 317.323636 243.3805 
L 317.323636 307.584 
z
" clip-path="url(#p411530a00c)" style="fill: #fa8072"/>
    <path d="M 317.323636 307.584 
L 317.323636 239.755101 
L 320.570182 239.755101 
L 320.570182 307.584 
z
" clip-path="url(#p411530a00c)" style="fill: #ff7f50"/>
    <path d="M 320.570182 307.584 
L 320.570182 235.924986 
L 323.816727 235.924986 
L 323.816727 307.584 
z
" clip-path="url(#p411530a00c)" style="fill: #f08080"/>
    <path d="M 323.816727 307.584 
L 323.816727 231.878594 
L 327.063273 231.878594 
L 327.063273 307.584 
z
" clip-path="url(#p411530a00c)" style="fill: #fa8072"/>
    <path d="M 327.063273 307.584 
L 327.063273 227.603713 
L 330.309818 227.603713 
L 330.309818 307.584 
z
" clip-path="url(#p411530a00c)" style="fill: #ff7f50"/>
    <path d="M 330.309818 307.584 
L 330.309818 223.087442 
L 333.556364 223.087442 
L 333.556364 307.584 
z
" clip-path="url(#p411530a00c)" style="fill: #f08080"/>
    <path d="M 333.556364 307.584 
L 333.556364 218.316149 
L 336.802909 218.316149 
L 336.802909 307.584 
z
" clip-path="url(#p411530a00c)" style="fill: #fa8072"/>
    <path d="M 336.802909 307.584 
L 336.802909 213.275433 
L 340.049455 213.275433 
L 340.049455 307.584 
z
" clip-path="url(#p411530a00c)" style="fill: #ff7f50"/>
    <path d="M 340.049455 307.584 
L 340.049455 207.950082 
L 343.296 207.950082 
L 343.296 307.584 
z
" clip-path="url(#p411530a00c)" style="fill: #f08080"/>
    <path d="M 343.296 307.584 
L 343.296 202.324023 
L 346.542545 202.324023 
L 346.542545 307.584 
z
" clip-path="url(#p411530a00c)" style="fill: #fa8072"/>
    <path d="M 346.542545 307.584 
L 346.542545 196.380276 
L 349.789091 196.380276 
L 349.789091 307.584 
z
" clip-path="url(#p411530a00c)" style="fill: #ff7f50"/>
    <path d="M 349.789091 307.584 
L 349.789091 190.100901 
L 353.035636 190.100901 
L 353.035636 307.584 
z
" clip-path="url(#p411530a00c)" style="fill: #f08080"/>
    <path d="M 353.035636 307.584 
L 353.035636 183.466946 
L 356.282182 183.466946 
L 356.282182 307.584 
z
" clip-path="url(#p411530a00c)" style="fill: #fa8072"/>
    <path d="M 356.282182 307.584 
L 356.282182 176.45839 
L 359.528727 176.45839 
L 359.528727 307.584 
z
" clip-path="url(#p411530a00c)" style="fill: #ff7f50"/>
    <path d="M 359.528727 307.584 
L 359.528727 169.05408 
L 362.775273 169.05408 
L 362.775273 307.584 
z
" clip-path="url(#p411530a00c)" style="fill: #f08080"/>
    <path d="M 362.775273 307.584 
L 362.775273 161.231668 
L 366.021818 161.231668 
L 366.021818 307.584 
z
" clip-path="url(#p411530a00c)" style="fill: #fa8072"/>
    <path d="M 366.021818 307.584 
L 366.021818 152.967546 
L 369.268364 152.967546 
L 369.268364 307.584 
z
" clip-path="url(#p411530a00c)" style="fill: #ff7f50"/>
    <path d="M 369.268364 307.584 
L 369.268364 144.236771 
L 372.514909 144.236771 
L 372.514909 307.584 
z
" clip-path="url(#p411530a00c)" style="fill: #f08080"/>
    <path d="M 372.514909 307.584 
L 372.514909 135.012992 
L 375.761455 135.012992 
L 375.761455 307.584 
z
" clip-path="url(#p411530a00c)" style="fill: #fa8072"/>
    <path d="M 375.761455 307.584 
L 375.761455 125.268372 
L 379.008 125.268372 
L 379.008 307.584 
z
" clip-path="url(#p411530a00c)" style="fill: #ff7f50"/>
    <path d="M 379.008 307.584 
L 379.008 114.973499 
L 382.254545 114.973499 
L 382.254545 307.584 
z
" clip-path="url(#p411530a00c)" style="fill: #f08080"/>
    <path d="M 382.254545 307.584 
L 382.254545 104.097303 
L 385.501091 104.097303 
L 385.501091 307.584 
z
" clip-path="url(#p411530a00c)" style="fill: #fa8072"/>
    <path d="M 385.501091 307.584 
L 385.501091 92.606957 
L 388.747636 92.606957 
L 388.747636 307.584 
z
" clip-path="url(#p411530a00c)" style="fill: #ff7f50"/>
    <path d="M 388.747636 307.584 
L 388.747636 80.467782 
L 391.994182 80.467782 
L 391.994182 307.584 
z
" clip-path="url(#p411530a00c)" style="fill: #f08080"/>
    <path d="M 391.994182 307.584 
L 391.994182 67.64314 
L 395.240727 67.64314 
L 395.240727 307.584 
z
" clip-path="url(#p411530a00c)" style="fill: #fa8072"/>
    <path d="M 395.240727 307.584 
L 395.240727 54.094325 
L 398.487273 54.094325 
L 398.487273 307.584 
z
" clip-path="url(#p411530a00c)" style="fill: #ff7f50"/>
    <path d="M 398.487273 307.584 
L 398.487273 54.094325 
L 398.487273 54.094325 
L 398.487273 307.584 
z
" clip-path="url(#p411530a00c)" style="fill: #f08080"/>
   </g>
   <g id="matplotlib.axis_1">
    <g id="xtick_1">
     <g id="line2d_1">
      <defs>
       <path id="mca05544cce" d="M 0 0 
L 0 3.5 
" style="stroke: #000000; stroke-width: 0.8"/>
      </defs>
      <g>
       <use xlink:href="#mca05544cce" x="73.832727" y="307.584" style="stroke: #000000; stroke-width: 0.8"/>
      </g>
     </g>
     <g id="text_1">
      <!-- −2 -->
      <g transform="translate(66.461634 322.182437) scale(0.1 -0.1)">
       <defs>
        <path id="DejaVuSans-2212" d="M 678 2272 
L 4684 2272 
L 4684 1741 
L 678 1741 
L 678 2272 
z
" transform="scale(0.015625)"/>
        <path id="DejaVuSans-32" d="M 1228 531 
L 3431 531 
L 3431 0 
L 469 0 
L 469 531 
Q 828 903 1448 1529 
Q 2069 2156 2228 2338 
Q 2531 2678 2651 2914 
Q 2772 3150 2772 3378 
Q 2772 3750 2511 3984 
Q 2250 4219 1831 4219 
Q 1534 4219 1204 4116 
Q 875 4013 500 3803 
L 500 4441 
Q 881 4594 1212 4672 
Q 1544 4750 1819 4750 
Q 2544 4750 2975 4387 
Q 3406 4025 3406 3419 
Q 3406 3131 3298 2873 
Q 3191 2616 2906 2266 
Q 2828 2175 2409 1742 
Q 1991 1309 1228 531 
z
" transform="scale(0.015625)"/>
       </defs>
       <use xlink:href="#DejaVuSans-2212"/>
       <use xlink:href="#DejaVuSans-32" x="83.789062"/>
      </g>
     </g>
    </g>
    <g id="xtick_2">
     <g id="line2d_2">
      <g>
       <use xlink:href="#mca05544cce" x="138.763636" y="307.584" style="stroke: #000000; stroke-width: 0.8"/>
      </g>
     </g>
     <g id="text_2">
      <!-- −1 -->
      <g transform="translate(131.392543 322.182437) scale(0.1 -0.1)">
       <defs>
        <path id="DejaVuSans-31" d="M 794 531 
L 1825 531 
L 1825 4091 
L 703 3866 
L 703 4441 
L 1819 4666 
L 2450 4666 
L 2450 531 
L 3481 531 
L 3481 0 
L 794 0 
L 794 531 
z
" transform="scale(0.015625)"/>
       </defs>
       <use xlink:href="#DejaVuSans-2212"/>
       <use xlink:href="#DejaVuSans-31" x="83.789062"/>
      </g>
     </g>
    </g>
    <g id="xtick_3">
     <g id="line2d_3">
      <g>
       <use xlink:href="#mca05544cce" x="203.694545" y="307.584" style="stroke: #000000; stroke-width: 0.8"/>
      </g>
     </g>
     <g id="text_3">
      <!-- 0 -->
      <g transform="translate(200.513295 322.182437) scale(0.1 -0.1)">
       <defs>
        <path id="DejaVuSans-30" d="M 2034 4250 
Q 1547 4250 1301 3770 
Q 1056 3291 1056 2328 
Q 1056 1369 1301 889 
Q 1547 409 2034 409 
Q 2525 409 2770 889 
Q 3016 1369 3016 2328 
Q 3016 3291 2770 3770 
Q 2525 4250 2034 4250 
z
M 2034 4750 
Q 2819 4750 3233 4129 
Q 3647 3509 3647 2328 
Q 3647 1150 3233 529 
Q 2819 -91 2034 -91 
Q 1250 -91 836 529 
Q 422 1150 422 2328 
Q 422 3509 836 4129 
Q 1250 4750 2034 4750 
z
" transform="scale(0.015625)"/>
       </defs>
       <use xlink:href="#DejaVuSans-30"/>
      </g>
     </g>
    </g>
    <g id="xtick_4">
     <g id="line2d_4">
      <g>
       <use xlink:href="#mca05544cce" x="268.625455" y="307.584" style="stroke: #000000; stroke-width: 0.8"/>
      </g>
     </g>
     <g id="text_4">
      <!-- 1 -->
      <g transform="translate(265.444205 322.182437) scale(0.1 -0.1)">
       <use xlink:href="#DejaVuSans-31"/>
      </g>
     </g>
    </g>
    <g id="xtick_5">
     <g id="line2d_5">
      <g>
       <use xlink:href="#mca05544cce" x="333.556364" y="307.584" style="stroke: #000000; stroke-width: 0.8"/>
      </g>
     </g>
     <g id="text_5">
      <!-- 2 -->
      <g transform="translate(330.375114 322.182437) scale(0.1 -0.1)">
       <use xlink:href="#DejaVuSans-32"/>
      </g>
     </g>
    </g>
    <g id="xtick_6">
     <g id="line2d_6">
      <g>
       <use xlink:href="#mca05544cce" x="398.487273" y="307.584" style="stroke: #000000; stroke-width: 0.8"/>
      </g>
     </g>
     <g id="text_6">
      <!-- 3 -->
      <g transform="translate(395.306023 322.182437) scale(0.1 -0.1)">
       <defs>
        <path id="DejaVuSans-33" d="M 2597 2516 
Q 3050 2419 3304 2112 
Q 3559 1806 3559 1356 
Q 3559 666 3084 287 
Q 2609 -91 1734 -91 
Q 1441 -91 1130 -33 
Q 819 25 488 141 
L 488 750 
Q 750 597 1062 519 
Q 1375 441 1716 441 
Q 2309 441 2620 675 
Q 2931 909 2931 1356 
Q 2931 1769 2642 2001 
Q 2353 2234 1838 2234 
L 1294 2234 
L 1294 2753 
L 1863 2753 
Q 2328 2753 2575 2939 
Q 2822 3125 2822 3475 
Q 2822 3834 2567 4026 
Q 2313 4219 1838 4219 
Q 1578 4219 1281 4162 
Q 984 4106 628 3988 
L 628 4550 
Q 988 4650 1302 4700 
Q 1616 4750 1894 4750 
Q 2613 4750 3031 4423 
Q 3450 4097 3450 3541 
Q 3450 3153 3228 2886 
Q 3006 2619 2597 2516 
z
" transform="scale(0.015625)"/>
       </defs>
       <use xlink:href="#DejaVuSans-33"/>
      </g>
     </g>
    </g>
   </g>
   <g id="matplotlib.axis_2">
    <g id="ytick_1">
     <g id="line2d_7">
      <defs>
       <path id="m8ed9a4c35c" d="M 0 0 
L -3.5 0 
" style="stroke: #000000; stroke-width: 0.8"/>
      </defs>
      <g>
       <use xlink:href="#m8ed9a4c35c" x="57.6" y="307.584" style="stroke: #000000; stroke-width: 0.8"/>
      </g>
     </g>
     <g id="text_7">
      <!-- 0 -->
      <g transform="translate(44.2375 311.383219) scale(0.1 -0.1)">
       <use xlink:href="#DejaVuSans-30"/>
      </g>
     </g>
    </g>
    <g id="ytick_2">
     <g id="line2d_8">
      <g>
       <use xlink:href="#m8ed9a4c35c" x="57.6" y="260.641468" style="stroke: #000000; stroke-width: 0.8"/>
      </g>
     </g>
     <g id="text_8">
      <!-- 5 -->
      <g transform="translate(44.2375 264.440686) scale(0.1 -0.1)">
       <defs>
        <path id="DejaVuSans-35" d="M 691 4666 
L 3169 4666 
L 3169 4134 
L 1269 4134 
L 1269 2991 
Q 1406 3038 1543 3061 
Q 1681 3084 1819 3084 
Q 2600 3084 3056 2656 
Q 3513 2228 3513 1497 
Q 3513 744 3044 326 
Q 2575 -91 1722 -91 
Q 1428 -91 1123 -41 
Q 819 9 494 109 
L 494 744 
Q 775 591 1075 516 
Q 1375 441 1709 441 
Q 2250 441 2565 725 
Q 2881 1009 2881 1497 
Q 2881 1984 2565 2268 
Q 2250 2553 1709 2553 
Q 1456 2553 1204 2497 
Q 953 2441 691 2322 
L 691 4666 
z
" transform="scale(0.015625)"/>
       </defs>
       <use xlink:href="#DejaVuSans-35"/>
      </g>
     </g>
    </g>
    <g id="ytick_3">
     <g id="line2d_9">
      <g>
       <use xlink:href="#m8ed9a4c35c" x="57.6" y="213.698935" style="stroke: #000000; stroke-width: 0.8"/>
      </g>
     </g>
     <g id="text_9">
      <!-- 10 -->
      <g transform="translate(37.875 217.498154) scale(0.1 -0.1)">
       <use xlink:href="#DejaVuSans-31"/>
       <use xlink:href="#DejaVuSans-30" x="63.623047"/>
      </g>
     </g>
    </g>
    <g id="ytick_4">
     <g id="line2d_10">
      <g>
       <use xlink:href="#m8ed9a4c35c" x="57.6" y="166.756403" style="stroke: #000000; stroke-width: 0.8"/>
      </g>
     </g>
     <g id="text_10">
      <!-- 15 -->
      <g transform="translate(37.875 170.555622) scale(0.1 -0.1)">
       <use xlink:href="#DejaVuSans-31"/>
       <use xlink:href="#DejaVuSans-35" x="63.623047"/>
      </g>
     </g>
    </g>
    <g id="ytick_5">
     <g id="line2d_11">
      <g>
       <use xlink:href="#m8ed9a4c35c" x="57.6" y="119.813871" style="stroke: #000000; stroke-width: 0.8"/>
      </g>
     </g>
     <g id="text_11">
      <!-- 20 -->
      <g transform="translate(37.875 123.613089) scale(0.1 -0.1)">
       <use xlink:href="#DejaVuSans-32"/>
       <use xlink:href="#DejaVuSans-30" x="63.623047"/>
      </g>
     </g>
    </g>
    <g id="ytick_6">
     <g id="line2d_12">
      <g>
       <use xlink:href="#m8ed9a4c35c" x="57.6" y="72.871338" style="stroke: #000000; stroke-width: 0.8"/>
      </g>
     </g>
     <g id="text_12">
      <!-- 25 -->
      <g transform="translate(37.875 76.670557) scale(0.1 -0.1)">
       <use xlink:href="#DejaVuSans-32"/>
       <use xlink:href="#DejaVuSans-35" x="63.623047"/>
      </g>
     </g>
    </g>
   </g>
   <g id="line2d_13">
    <path d="M 73.832727 306.540833 
L 80.45833 306.417083 
L 87.083933 306.278654 
L 93.709536 306.123803 
L 100.335139 305.950582 
L 106.960742 305.756812 
L 113.586345 305.540056 
L 120.211948 305.297586 
L 126.837551 305.026352 
L 133.463154 304.722943 
L 140.088757 304.38354 
L 146.71436 304.003874 
L 153.339963 303.57917 
L 159.965566 303.104083 
L 166.591169 302.572638 
L 173.216772 301.978148 
L 179.842375 301.313135 
L 186.467978 300.569232 
L 193.093581 299.737081 
L 199.719184 298.806214 
L 206.344787 297.764919 
L 212.97039 296.600097 
L 219.595993 295.297094 
L 226.221596 293.839518 
L 232.847199 292.209032 
L 239.472801 290.385124 
L 246.098404 288.344849 
L 252.724007 286.062539 
L 259.34961 283.509483 
L 265.975213 280.653561 
L 272.600816 277.458846 
L 279.226419 273.885148 
L 285.852022 269.887506 
L 292.477625 265.415632 
L 299.103228 260.413265 
L 305.728831 254.817477 
L 312.354434 248.557868 
L 318.980037 241.555692 
L 325.60564 233.72286 
L 332.231243 224.960831 
L 338.856846 215.159376 
L 345.482449 204.19519 
L 352.108052 191.930341 
L 358.733655 178.210532 
L 365.359258 162.863164 
L 371.984861 145.695162 
L 378.610464 126.490548 
L 385.236067 105.007721 
L 391.86167 80.976421 
L 398.487273 54.094325 
" clip-path="url(#p411530a00c)" style="fill: none; stroke: #ff0000; stroke-width: 2; stroke-linecap: square"/>
   </g>
   <g id="patch_4">
    <path d="M 57.6 307.584 
L 57.6 41.472 
" style="fill: none; stroke: #000000; stroke-width: 0.8; stroke-linejoin: miter; stroke-linecap: square"/>
   </g>
   <g id="patch_5">
    <path d="M 57.6 307.584 
L 414.72 307.584 
" style="fill: none; stroke: #000000; stroke-width: 0.8; stroke-linejoin: miter; stroke-linecap: square"/>
   </g>
   <g id="text_13">
    <!-- P(n) n = 0.05 : 26.497828340285057 -->
    <g transform="translate(203.694545 332.932967) scale(0.1 -0.1)">
     <defs>
      <path id="DejaVuSans-50" d="M 1259 4147 
L 1259 2394 
L 2053 2394 
Q 2494 2394 2734 2622 
Q 2975 2850 2975 3272 
Q 2975 3691 2734 3919 
Q 2494 4147 2053 4147 
L 1259 4147 
z
M 628 4666 
L 2053 4666 
Q 2838 4666 3239 4311 
Q 3641 3956 3641 3272 
Q 3641 2581 3239 2228 
Q 2838 1875 2053 1875 
L 1259 1875 
L 1259 0 
L 628 0 
L 628 4666 
z
" transform="scale(0.015625)"/>
      <path id="DejaVuSans-28" d="M 1984 4856 
Q 1566 4138 1362 3434 
Q 1159 2731 1159 2009 
Q 1159 1288 1364 580 
Q 1569 -128 1984 -844 
L 1484 -844 
Q 1016 -109 783 600 
Q 550 1309 550 2009 
Q 550 2706 781 3412 
Q 1013 4119 1484 4856 
L 1984 4856 
z
" transform="scale(0.015625)"/>
      <path id="DejaVuSans-6e" d="M 3513 2113 
L 3513 0 
L 2938 0 
L 2938 2094 
Q 2938 2591 2744 2837 
Q 2550 3084 2163 3084 
Q 1697 3084 1428 2787 
Q 1159 2491 1159 1978 
L 1159 0 
L 581 0 
L 581 3500 
L 1159 3500 
L 1159 2956 
Q 1366 3272 1645 3428 
Q 1925 3584 2291 3584 
Q 2894 3584 3203 3211 
Q 3513 2838 3513 2113 
z
" transform="scale(0.015625)"/>
      <path id="DejaVuSans-29" d="M 513 4856 
L 1013 4856 
Q 1481 4119 1714 3412 
Q 1947 2706 1947 2009 
Q 1947 1309 1714 600 
Q 1481 -109 1013 -844 
L 513 -844 
Q 928 -128 1133 580 
Q 1338 1288 1338 2009 
Q 1338 2731 1133 3434 
Q 928 4138 513 4856 
z
" transform="scale(0.015625)"/>
      <path id="DejaVuSans-20" transform="scale(0.015625)"/>
      <path id="DejaVuSans-3d" d="M 678 2906 
L 4684 2906 
L 4684 2381 
L 678 2381 
L 678 2906 
z
M 678 1631 
L 4684 1631 
L 4684 1100 
L 678 1100 
L 678 1631 
z
" transform="scale(0.015625)"/>
      <path id="DejaVuSans-2e" d="M 684 794 
L 1344 794 
L 1344 0 
L 684 0 
L 684 794 
z
" transform="scale(0.015625)"/>
      <path id="DejaVuSans-3a" d="M 750 794 
L 1409 794 
L 1409 0 
L 750 0 
L 750 794 
z
M 750 3309 
L 1409 3309 
L 1409 2516 
L 750 2516 
L 750 3309 
z
" transform="scale(0.015625)"/>
      <path id="DejaVuSans-36" d="M 2113 2584 
Q 1688 2584 1439 2293 
Q 1191 2003 1191 1497 
Q 1191 994 1439 701 
Q 1688 409 2113 409 
Q 2538 409 2786 701 
Q 3034 994 3034 1497 
Q 3034 2003 2786 2293 
Q 2538 2584 2113 2584 
z
M 3366 4563 
L 3366 3988 
Q 3128 4100 2886 4159 
Q 2644 4219 2406 4219 
Q 1781 4219 1451 3797 
Q 1122 3375 1075 2522 
Q 1259 2794 1537 2939 
Q 1816 3084 2150 3084 
Q 2853 3084 3261 2657 
Q 3669 2231 3669 1497 
Q 3669 778 3244 343 
Q 2819 -91 2113 -91 
Q 1303 -91 875 529 
Q 447 1150 447 2328 
Q 447 3434 972 4092 
Q 1497 4750 2381 4750 
Q 2619 4750 2861 4703 
Q 3103 4656 3366 4563 
z
" transform="scale(0.015625)"/>
      <path id="DejaVuSans-34" d="M 2419 4116 
L 825 1625 
L 2419 1625 
L 2419 4116 
z
M 2253 4666 
L 3047 4666 
L 3047 1625 
L 3713 1625 
L 3713 1100 
L 3047 1100 
L 3047 0 
L 2419 0 
L 2419 1100 
L 313 1100 
L 313 1709 
L 2253 4666 
z
" transform="scale(0.015625)"/>
      <path id="DejaVuSans-39" d="M 703 97 
L 703 672 
Q 941 559 1184 500 
Q 1428 441 1663 441 
Q 2288 441 2617 861 
Q 2947 1281 2994 2138 
Q 2813 1869 2534 1725 
Q 2256 1581 1919 1581 
Q 1219 1581 811 2004 
Q 403 2428 403 3163 
Q 403 3881 828 4315 
Q 1253 4750 1959 4750 
Q 2769 4750 3195 4129 
Q 3622 3509 3622 2328 
Q 3622 1225 3098 567 
Q 2575 -91 1691 -91 
Q 1453 -91 1209 -44 
Q 966 3 703 97 
z
M 1959 2075 
Q 2384 2075 2632 2365 
Q 2881 2656 2881 3163 
Q 2881 3666 2632 3958 
Q 2384 4250 1959 4250 
Q 1534 4250 1286 3958 
Q 1038 3666 1038 3163 
Q 1038 2656 1286 2365 
Q 1534 2075 1959 2075 
z
" transform="scale(0.015625)"/>
      <path id="DejaVuSans-37" d="M 525 4666 
L 3525 4666 
L 3525 4397 
L 1831 0 
L 1172 0 
L 2766 4134 
L 525 4134 
L 525 4666 
z
" transform="scale(0.015625)"/>
      <path id="DejaVuSans-38" d="M 2034 2216 
Q 1584 2216 1326 1975 
Q 1069 1734 1069 1313 
Q 1069 891 1326 650 
Q 1584 409 2034 409 
Q 2484 409 2743 651 
Q 3003 894 3003 1313 
Q 3003 1734 2745 1975 
Q 2488 2216 2034 2216 
z
M 1403 2484 
Q 997 2584 770 2862 
Q 544 3141 544 3541 
Q 544 4100 942 4425 
Q 1341 4750 2034 4750 
Q 2731 4750 3128 4425 
Q 3525 4100 3525 3541 
Q 3525 3141 3298 2862 
Q 3072 2584 2669 2484 
Q 3125 2378 3379 2068 
Q 3634 1759 3634 1313 
Q 3634 634 3220 271 
Q 2806 -91 2034 -91 
Q 1263 -91 848 271 
Q 434 634 434 1313 
Q 434 1759 690 2068 
Q 947 2378 1403 2484 
z
M 1172 3481 
Q 1172 3119 1398 2916 
Q 1625 2713 2034 2713 
Q 2441 2713 2670 2916 
Q 2900 3119 2900 3481 
Q 2900 3844 2670 4047 
Q 2441 4250 2034 4250 
Q 1625 4250 1398 4047 
Q 1172 3844 1172 3481 
z
" transform="scale(0.015625)"/>
     </defs>
     <use xlink:href="#DejaVuSans-50"/>
     <use xlink:href="#DejaVuSans-28" x="60.302734"/>
     <use xlink:href="#DejaVuSans-6e" x="99.316406"/>
     <use xlink:href="#DejaVuSans-29" x="162.695312"/>
     <use xlink:href="#DejaVuSans-20" x="201.708984"/>
     <use xlink:href="#DejaVuSans-6e" x="233.496094"/>
     <use xlink:href="#DejaVuSans-20" x="296.875"/>
     <use xlink:href="#DejaVuSans-3d" x="328.662109"/>
     <use xlink:href="#DejaVuSans-20" x="412.451172"/>
     <use xlink:href="#DejaVuSans-30" x="444.238281"/>
     <use xlink:href="#DejaVuSans-2e" x="507.861328"/>
     <use xlink:href="#DejaVuSans-30" x="539.648438"/>
     <use xlink:href="#DejaVuSans-35" x="603.271484"/>
     <use xlink:href="#DejaVuSans-20" x="666.894531"/>
     <use xlink:href="#DejaVuSans-3a" x="698.681641"/>
     <use xlink:href="#DejaVuSans-20" x="732.373047"/>
     <use xlink:href="#DejaVuSans-32" x="764.160156"/>
     <use xlink:href="#DejaVuSans-36" x="827.783203"/>
     <use xlink:href="#DejaVuSans-2e" x="891.40625"/>
     <use xlink:href="#DejaVuSans-34" x="923.193359"/>
     <use xlink:href="#DejaVuSans-39" x="986.816406"/>
     <use xlink:href="#DejaVuSans-37" x="1050.439453"/>
     <use xlink:href="#DejaVuSans-38" x="1114.0625"/>
     <use xlink:href="#DejaVuSans-32" x="1177.685547"/>
     <use xlink:href="#DejaVuSans-38" x="1241.308594"/>
     <use xlink:href="#DejaVuSans-33" x="1304.931641"/>
     <use xlink:href="#DejaVuSans-34" x="1368.554688"/>
     <use xlink:href="#DejaVuSans-30" x="1432.177734"/>
     <use xlink:href="#DejaVuSans-32" x="1495.800781"/>
     <use xlink:href="#DejaVuSans-38" x="1559.423828"/>
     <use xlink:href="#DejaVuSans-35" x="1623.046875"/>
     <use xlink:href="#DejaVuSans-30" x="1686.669922"/>
     <use xlink:href="#DejaVuSans-35" x="1750.292969"/>
     <use xlink:href="#DejaVuSans-37" x="1813.916016"/>
    </g>
   </g>
   <g id="text_14">
    <!-- P: 24.475321427077184 -->
    <g transform="translate(203.694545 343.260325) scale(0.1 -0.1)">
     <use xlink:href="#DejaVuSans-50"/>
     <use xlink:href="#DejaVuSans-3a" x="60.302734"/>
     <use xlink:href="#DejaVuSans-20" x="93.994141"/>
     <use xlink:href="#DejaVuSans-32" x="125.78125"/>
     <use xlink:href="#DejaVuSans-34" x="189.404297"/>
     <use xlink:href="#DejaVuSans-2e" x="253.027344"/>
     <use xlink:href="#DejaVuSans-34" x="284.814453"/>
     <use xlink:href="#DejaVuSans-37" x="348.4375"/>
     <use xlink:href="#DejaVuSans-35" x="412.060547"/>
     <use xlink:href="#DejaVuSans-33" x="475.683594"/>
     <use xlink:href="#DejaVuSans-32" x="539.306641"/>
     <use xlink:href="#DejaVuSans-31" x="602.929688"/>
     <use xlink:href="#DejaVuSans-34" x="666.552734"/>
     <use xlink:href="#DejaVuSans-32" x="730.175781"/>
     <use xlink:href="#DejaVuSans-37" x="793.798828"/>
     <use xlink:href="#DejaVuSans-30" x="857.421875"/>
     <use xlink:href="#DejaVuSans-37" x="921.044922"/>
     <use xlink:href="#DejaVuSans-37" x="984.667969"/>
     <use xlink:href="#DejaVuSans-31" x="1048.291016"/>
     <use xlink:href="#DejaVuSans-38" x="1111.914062"/>
     <use xlink:href="#DejaVuSans-34" x="1175.537109"/>
    </g>
   </g>
  </g>
  <g id="text_15">
   <!-- $x$ -->
   <g transform="translate(414.72 328.32) scale(0.1 -0.1)">
    <defs>
     <path id="DejaVuSans-Oblique-78" d="M 3841 3500 
L 2234 1784 
L 3219 0 
L 2559 0 
L 1819 1388 
L 531 0 
L -166 0 
L 1556 1844 
L 641 3500 
L 1300 3500 
L 1972 2234 
L 3144 3500 
L 3841 3500 
z
" transform="scale(0.015625)"/>
    </defs>
    <use xlink:href="#DejaVuSans-Oblique-78" transform="translate(0 0.3125)"/>
   </g>
  </g>
  <g id="text_16">
   <!-- $y$ -->
   <g transform="translate(46.08 34.56) scale(0.1 -0.1)">
    <defs>
     <path id="DejaVuSans-Oblique-79" d="M 1588 -325 
Q 1188 -997 936 -1164 
Q 684 -1331 294 -1331 
L -159 -1331 
L -63 -850 
L 269 -850 
Q 509 -850 678 -719 
Q 847 -588 1056 -206 
L 1234 128 
L 459 3500 
L 1069 3500 
L 1650 819 
L 3256 3500 
L 3859 3500 
L 1588 -325 
z
" transform="scale(0.015625)"/>
    </defs>
    <use xlink:href="#DejaVuSans-Oblique-79" transform="translate(0 0.3125)"/>
   </g>
  </g>
 </g>
 <defs>
  <clipPath id="p411530a00c">
   <rect x="57.6" y="41.472" width="357.12" height="266.112"/>
  </clipPath>
 </defs>
</svg>
